<svg xmlns="http://www.w3.org/2000/svg" viewBox="0 0 94.03 34.4"><defs><style>.cls-1{fill:#f07f25;}</style></defs><g id="Layer_2" data-name="Layer 2"><g id="Layer_1-2" data-name="Layer 1"><path class="cls-1" d="M0,0H10V34.4H0ZM12.1,26.75h.4a20.6,20.6,0,0,0,3.45-.2,2.33,2.33,0,0,0,1.55-1.1,5.87,5.87,0,0,0,.6-2.85c.07-1.67.1-3.47.1-5.4s0-3.72-.1-5.45a6.29,6.29,0,0,0-.65-2.85A2.18,2.18,0,0,0,15.8,7.8a27.42,27.42,0,0,0-3.3-.15h-.4V0h.4a52.89,52.89,0,0,1,6.65.35,16.89,16.89,0,0,1,4.45,1.1A6.79,6.79,0,0,1,26.3,3.5a8.3,8.3,0,0,1,1.45,3.25,23.22,23.22,0,0,1,.5,4.15q.15,2.36.15,6.3c0,2.67,0,4.78-.15,6.35a23,23,0,0,1-.5,4.1A8.3,8.3,0,0,1,26.3,30.9,6.79,6.79,0,0,1,23.6,33a16.89,16.89,0,0,1-4.45,1.1,52.89,52.89,0,0,1-6.65.35h-.4Zm21.83-.5H44V34.4H33.93ZM50.49,0h10V34.4h-10Zm12.1,26.75h2c.93,0,1.63,0,2.1-.05a2.17,2.17,0,0,0,1.1-.4,1.43,1.43,0,0,0,.45-.85,6.48,6.48,0,0,0,.15-1.6,6.78,6.78,0,0,0-.15-1.65,1.43,1.43,0,0,0-.45-.85c-.4-.33-1.47-.5-3.2-.5h-2V13.2h1.75c.93,0,1.63,0,2.1,0a2.17,2.17,0,0,0,1.1-.4A1.42,1.42,0,0,0,68,12a6,6,0,0,0,.15-1.5A5.56,5.56,0,0,0,68,9a1.43,1.43,0,0,0-.45-.85,1.86,1.86,0,0,0-1.1-.35,15.64,15.64,0,0,0-2.1-.1H62.59V0h5.7q10,0,10,8.65a8.78,8.78,0,0,1-1.45,5.5,7.72,7.72,0,0,1-4.5,2.6V17A8.63,8.63,0,0,1,77,19.3c1.06,1.27,1.6,3.23,1.6,5.9q0,4.61-2.45,6.9c-1.64,1.53-4.25,2.3-7.85,2.3H62.59Zm21.34-.5H94V34.4H83.93Z"/></g></g></svg>