<svg xmlns="http://www.w3.org/2000/svg" viewBox="0 0 255.11 360.09"><defs><style>.cls-1{fill:#3654a2;}.cls-2{fill:#3b60ab;}.cls-3{fill:#ebebeb;}.cls-4{fill:#fff;}</style></defs><g id="Layer_2" data-name="Layer 2"><g id="Layer_1-2" data-name="Layer 1"><path class="cls-1" d="M127.4,360.09,23.22,331.17,0,70.77H255.11L231.87,331.13l-104.47,29Z"/><path class="cls-2" d="M212,314.55,231.83,92.06H127.55V338L212,314.55Z"/><path class="cls-3" d="M53.22,188.64l2.87,31.93h71.46V188.64Z"/><path class="cls-3" d="M47.47,124l2.9,31.93h77.18V124Z"/><path class="cls-3" d="M127.55,271.58l-.14,0L91.85,262l-2.28-25.47H57.51L62,286.69l65.42,18.16.14,0Z"/><path d="M60,0H98.72V16.18H76.21V32.35H98.72V48.53H60Z"/><path d="M106.46,0h38.68V14.07H122.63v2.81h22.51V49.23H106.46V34.46H129V31.65H106.45V0Z"/><path d="M152.87,0h38.68V14.07h-22.5v2.81h22.5V49.23H152.87V34.46h22.51V31.65H152.87V0Z"/><path class="cls-4" d="M201.68,188.64,207.45,124h-80v31.93h45l-2.91,32.71h-42.1v31.93h39.33L163.06,262l-35.62,9.62v33.22l65.48-18.14.48-5.4,7.5-84.08.78-8.57Z"/></g></g></svg>