<svg xmlns="http://www.w3.org/2000/svg" viewBox="0 0 256 384"><defs><style>.cls-1{fill:#4cb37d;}.cls-2{fill:#765ea5;}.cls-3{fill:#e94f25;}.cls-4{fill:#ee7164;}.cls-5{fill:#44b7ea;}</style></defs><g id="Layer_2" data-name="Layer 2"><g id="Layer_1-2" data-name="Layer 1"><path class="cls-1" d="M64,384a64,64,0,0,0,64-64V256H64a64,64,0,0,0,0,128Z"/><path class="cls-2" d="M0,192a64,64,0,0,1,64-64h64V256H64A64,64,0,0,1,0,192Z"/><path class="cls-3" d="M0,64A64,64,0,0,1,64,0h64V128H64A64,64,0,0,1,0,64Z"/><path class="cls-4" d="M128,0h64a64,64,0,0,1,0,128H128Z"/><path class="cls-5" d="M256,192a64,64,0,1,1-64-64A64,64,0,0,1,256,192Z"/></g></g></svg>