<svg width="256" height="107" viewBox="0 0 256 107" fill="none" xmlns="http://www.w3.org/2000/svg">
<path d="M152.983 36.291C147.386 36.291 143.218 39.039 143.218 45.653C143.218 50.636 145.965 54.096 152.681 54.096C158.374 54.096 162.241 50.741 162.241 45.446C162.241 39.446 158.781 36.291 152.983 36.291V36.291ZM141.793 82.992C140.468 84.617 139.148 86.345 139.148 88.382C139.148 92.449 144.334 93.673 151.458 93.673C157.358 93.673 165.396 93.259 165.396 87.773C165.396 84.512 161.529 84.311 156.643 84.005L141.793 82.992V82.992ZM171.906 36.598C173.734 38.938 175.67 42.195 175.67 46.874C175.67 58.166 166.819 64.778 154.003 64.778C150.744 64.778 147.794 64.372 145.965 63.864L142.606 69.254L152.575 69.864C170.177 70.986 180.55 71.496 180.55 85.021C180.55 96.723 170.278 103.332 152.575 103.332C134.162 103.332 127.142 98.652 127.142 90.616C127.142 86.038 129.177 83.601 132.738 80.238C129.38 78.819 128.262 76.277 128.262 73.528C128.262 71.288 129.38 69.255 131.214 67.32C133.044 65.39 135.078 63.455 137.52 61.217C132.536 58.775 128.77 53.485 128.77 45.955C128.77 34.258 136.503 26.224 152.065 26.224C156.441 26.224 159.087 26.626 161.427 27.241H181.267V35.885L171.906 36.598V36.598Z" fill="#2F2707"/>
<path d="M199.165 18.111C193.365 18.111 190.008 14.751 190.008 8.95C190.008 3.157 193.364 0 199.165 0C205.065 0 208.423 3.157 208.423 8.95C208.423 14.751 205.066 18.111 199.165 18.111ZM186.039 79.248V71.215L191.229 70.505C192.654 70.3 192.856 69.996 192.856 68.467V38.557C192.856 37.441 192.552 36.725 191.531 36.423L186.039 34.488L187.157 26.25H208.218V68.467C208.218 70.097 208.316 70.3 209.847 70.506L215.035 71.216V79.248H186.039V79.248Z" fill="#2F2707"/>
<path d="M255.266 75.304C250.89 77.439 244.481 79.372 238.68 79.372C226.574 79.372 221.998 74.494 221.998 62.992V36.341C221.998 35.731 221.998 35.324 221.181 35.324H214.061V26.267C223.016 25.247 226.574 20.771 227.693 9.68201H237.359V24.132C237.359 24.842 237.359 25.149 238.174 25.149H252.517V35.322H237.359V59.635C237.359 65.637 238.785 67.975 244.276 67.975C247.128 67.975 250.075 67.265 252.516 66.349L255.266 75.303" fill="#2F2707"/>
<path d="M104.528 48.607L58.0123 2.09398C57.3752 1.45675 56.6189 0.951253 55.7864 0.606373C54.954 0.261494 54.0618 0.0839844 53.1608 0.0839844C52.2597 0.0839844 51.3675 0.261494 50.5351 0.606373C49.7026 0.951253 48.9463 1.45675 48.3093 2.09398L38.6503 11.754L50.9033 24.006C52.3435 23.5162 53.8922 23.4395 55.3738 23.7847C56.8554 24.1298 58.2107 24.8831 59.2863 25.959C60.3675 27.0417 61.1225 28.4067 61.4648 29.8981C61.8072 31.3895 61.7231 32.9471 61.2223 34.393L73.0293 46.202C75.8863 45.218 79.1832 45.855 81.4642 48.14C82.2226 48.8979 82.8242 49.7978 83.2346 50.7882C83.6451 51.7787 83.8564 52.8403 83.8564 53.9125C83.8564 54.9846 83.6451 56.0463 83.2346 57.0367C82.8242 58.0272 82.2226 58.9271 81.4642 59.685C80.13 61.0205 78.3742 61.8523 76.4957 62.0389C74.6171 62.2255 72.732 61.7553 71.1611 60.7084C69.5902 59.6614 68.4307 58.1024 67.8799 56.2968C67.3292 54.4912 67.4211 52.5504 68.1403 50.805L57.1283 39.793L57.1273 68.773C57.9256 69.1677 58.6547 69.6891 59.2863 70.317C60.0446 71.0751 60.6461 71.9752 61.0565 72.9658C61.4669 73.9564 61.6781 75.0182 61.6781 76.0905C61.6781 77.1628 61.4669 78.2245 61.0565 79.2151C60.6461 80.2058 60.0446 81.1059 59.2863 81.864C56.0963 85.054 50.9263 85.054 47.7413 81.864C46.7897 80.9132 46.0879 79.7419 45.6982 78.4545C45.3084 77.167 45.2428 75.8032 45.5072 74.4843C45.7717 73.1653 46.3579 71.9322 47.2138 70.8945C48.0697 69.8567 49.1687 69.0465 50.4133 68.536V39.286C49.4121 38.8771 48.5034 38.2711 47.7413 37.504C45.3253 35.091 44.7443 31.546 45.9823 28.579L33.9043 16.499L2.01025 48.391C1.37293 49.0283 0.867369 49.7849 0.522449 50.6175C0.177529 51.4502 0 52.3427 0 53.244C0 54.1453 0.177529 55.0377 0.522449 55.8704C0.867369 56.7031 1.37293 57.4597 2.01025 58.097L48.5263 104.611C49.8131 105.897 51.5582 106.62 53.3778 106.62C55.1973 106.62 56.9424 105.897 58.2293 104.611L104.528 58.314C105.815 57.0265 106.538 55.2807 106.538 53.4605C106.538 51.6402 105.815 49.8945 104.528 48.607" fill="#DE4C36"/>
</svg>
