<svg xmlns="http://www.w3.org/2000/svg" viewBox="0 0 211.97 299.2"><defs><style>.cls-1{fill:#e44e27;}.cls-2{fill:#ec652b;}.cls-3{fill:#ebebeb;}.cls-4{fill:#fff;}</style></defs><g id="Layer_2" data-name="Layer 2"><g id="Layer_1-2" data-name="Layer 1"><path class="cls-1" d="M212,58.8,192.66,275.13l-86.8,24.07-86.57-24L0,58.8Z"/><path class="cls-2" d="M106,280.8l70.14-19.44,16.5-184.87H106Z"/><path class="cls-3" d="M68.45,129.56H106V103H39.44l.64,7.12,6.52,73.13H106V156.74H70.87l-2.42-27.18Z"/><path class="cls-3" d="M74.43,196.54H47.79l3.72,41.67,54.35,15.09.13,0V225.66l-.12,0-29.55-8-1.89-21.17Z"/><path d="M19.72,0H33.21V13.32H45.54V0H59V40.35H45.54V26.84H33.21V40.35H19.72V0Z"/><path d="M76.76,13.38H64.89V0h37.24V13.38H90.25v27H76.77v-27Z"/><path d="M108,0H122.1l8.65,14.18L139.39,0h14.07V40.35H140v-20l-9.28,14.34h-.23l-9.29-14.34v20H108Z"/><path d="M160.17,0h13.49V27h19V40.35H160.17V0Z"/><path class="cls-4" d="M105.89,183.28h32.68l-3.08,34.41-29.6,8v27.61l54.41-15.08.39-4.48,6.24-69.87.65-7.12H105.89Z"/><path class="cls-4" d="M105.89,129.5v.06H170l.53-6,1.21-13.45.64-7.12H105.89V129.5Z"/></g></g></svg>