<svg width="243" height="210" viewBox="0 0 243 210" fill="none" xmlns="http://www.w3.org/2000/svg">
<path d="M137.435 0.00933387C92.5974 -0.620414 49.5925 30.6826 36.7241 73.7673C26.8326 104.752 32.6124 140.208 51.943 166.382L4.05807 157.105L0 178.087L86.1058 194.768L102.778 109.285L81.8185 105.191L71.6999 157.073C47.0118 127.58 47.3682 80.8883 72.477 51.7507C96.9309 21.1688 143.517 12.3902 177.6 31.4478C210.207 48.2899 228.297 88.1886 219.401 123.834C211.434 161.04 175.375 189.256 137.435 188.493C127.561 187.792 122.598 202.063 130.773 207.649C137.91 212.099 146.939 208.96 154.762 208.446C198.927 201.723 236.18 164.019 241.875 119.592C248.458 77.2006 225.612 32.5145 187.634 12.6914C172.3 4.362 154.878 -0.0182723 137.435 0.00915451V0.00933387Z" fill="black"/>
</svg>
