<svg width="256" height="192" viewBox="0 0 256 192" fill="none" xmlns="http://www.w3.org/2000/svg">
<path d="M219.827 110.06C210.921 110.106 203.18 112.251 196.699 115.422C194.32 110.712 191.942 106.516 191.523 103.438C191.056 99.8479 190.497 97.6559 191.056 93.3659C191.616 89.0759 194.134 82.9669 194.087 82.5009C194.041 82.0349 193.527 79.8429 188.398 79.7969C183.269 79.7499 178.839 80.7759 178.326 82.1279C177.813 83.4799 176.834 86.5579 176.181 89.7279C175.295 94.3919 165.923 111.038 160.561 119.758C158.835 116.355 157.343 113.37 157.016 110.992C156.55 107.402 155.99 105.21 156.55 100.92C157.11 96.6299 159.628 90.5219 159.581 90.0549C159.534 89.5889 159.021 87.3969 153.892 87.3509C148.762 87.3039 144.332 88.3299 143.82 89.6819C143.307 91.0349 142.747 94.2049 141.675 97.2829C140.602 100.361 128.152 128.153 124.888 135.333C123.569 138.239 122.186 141.115 120.738 143.96C120.738 143.96 120.691 144.1 120.551 144.333C120.097 145.225 119.631 146.111 119.153 146.991V147.037C118.453 148.297 117.707 149.462 117.334 149.462C117.054 149.462 116.541 146.105 117.427 141.535C119.292 131.883 123.722 116.868 123.676 116.355C123.676 116.075 124.515 113.464 120.785 112.111C117.147 110.759 115.842 112.997 115.515 112.997C115.189 112.997 114.955 113.79 114.955 113.79C114.955 113.79 119.013 96.9099 107.215 96.9099C99.8484 96.9099 89.6824 104.977 84.6464 112.251C78.9215 115.366 73.2015 118.491 67.4864 121.624C64.7364 123.163 61.8914 124.702 59.2334 126.147C59.0464 125.961 58.8604 125.727 58.6734 125.541C44.4044 110.293 18.0124 99.5209 19.1314 79.0509C19.5514 71.5899 22.1154 52.0049 69.8184 28.2239C109.08 8.8719 140.323 14.2339 145.732 26.1249C153.472 43.0989 128.992 74.6209 88.4234 79.1899C72.9424 80.9159 64.8284 74.9469 62.7774 72.7089C60.6324 70.3769 60.3054 70.2369 59.5124 70.7039C58.2074 71.4039 59.0464 73.5019 59.5124 74.7139C60.7254 77.8839 65.7144 83.4799 74.1544 86.2319C81.6154 88.6559 99.7544 90.0089 121.717 81.5219C146.291 72.0089 165.503 45.5699 159.861 23.4209C154.218 0.944902 116.914 -6.4691 81.6154 6.0739C60.6324 13.5359 37.8764 25.2859 21.5094 40.5809C2.06435 58.7659 -1.01365 74.5739 0.245354 81.1959C4.76935 104.697 37.1774 119.992 50.1404 131.323C49.4874 131.696 48.8804 132.023 48.3684 132.303C41.8864 135.52 17.1724 148.436 11.0174 162.099C4.02335 177.58 12.1374 188.679 17.4994 190.17C34.1464 194.787 51.2594 186.487 60.4454 172.777C69.6314 159.068 68.5124 141.255 64.2694 133.095C64.2224 133.002 64.1764 132.908 64.0824 132.815C65.7614 131.836 67.4864 130.81 69.1654 129.831C72.2512 128.007 75.3763 126.25 78.5384 124.561C76.9524 128.898 75.7864 134.074 75.2274 141.535C74.5274 150.302 78.1174 161.679 82.8274 166.155C84.9264 168.115 87.3974 168.161 88.9834 168.161C94.4854 168.161 96.9574 163.591 99.7084 158.182C103.065 151.561 106.096 143.867 106.096 143.867C106.096 143.867 102.319 164.664 112.578 164.664C116.308 164.664 120.085 159.814 121.764 157.343V157.389C121.764 157.389 121.857 157.249 122.044 156.923C122.417 156.317 122.65 155.943 122.65 155.943V155.851C124.142 153.239 127.5 147.317 132.489 137.478C138.924 124.795 145.126 108.941 145.126 108.941C145.126 108.941 145.686 112.811 147.597 119.246C148.717 123.023 151.047 127.173 152.913 131.183C151.421 133.282 150.488 134.447 150.488 134.447L150.535 134.494C149.322 136.079 148.017 137.804 146.571 139.484C141.488 145.545 135.427 152.494 134.587 154.498C133.607 156.876 133.841 158.602 135.707 160.001C137.059 161.027 139.483 161.166 141.955 161.027C146.525 160.7 149.742 159.581 151.327 158.882C153.799 157.996 156.69 156.643 159.394 154.638C164.384 150.954 167.414 145.685 167.135 138.738C166.995 134.914 165.736 131.09 164.197 127.499C164.664 126.847 165.083 126.194 165.55 125.541C173.43 114.023 179.539 101.386 179.539 101.386C179.539 101.386 180.099 105.256 182.01 111.692C182.943 114.956 184.855 118.5 186.533 121.95C179.119 127.966 174.549 134.96 172.917 139.53C169.98 148.017 172.264 151.84 176.601 152.726C178.559 153.146 181.357 152.213 183.409 151.327C186.02 150.488 189.098 149.043 192.036 146.897C197.026 143.214 201.828 138.084 201.548 131.137C201.408 127.966 200.569 124.841 199.403 121.81C205.698 119.2 213.812 117.754 224.163 118.966C246.36 121.577 250.743 135.426 249.903 141.256C249.064 147.084 244.401 150.255 242.863 151.234C241.323 152.214 240.811 152.54 240.951 153.239C241.137 154.265 241.883 154.219 243.189 154.032C245.008 153.706 254.847 149.322 255.266 138.597C255.966 124.888 242.909 109.92 219.827 110.06V110.06ZM48.6014 167.788C41.2334 175.808 30.9754 178.839 26.5454 176.275C21.7894 173.523 23.6544 161.679 32.7004 153.193C38.2024 148.017 45.2904 143.213 50.0004 140.276C51.0724 139.623 52.6584 138.691 54.5704 137.525C54.8964 137.338 55.0834 137.245 55.0834 137.245L56.2024 136.545C59.5124 148.669 56.3424 159.348 48.6014 167.788V167.788ZM102.226 131.323C99.6614 137.572 94.2994 153.566 91.0354 152.68C88.2374 151.934 86.5114 139.81 90.4754 127.826C92.4804 121.81 96.7234 114.629 99.1954 111.832C103.205 107.355 107.635 105.862 108.707 107.682C110.06 110.06 103.811 127.406 102.226 131.323V131.323ZM146.478 152.493C145.405 153.053 144.38 153.426 143.913 153.146C143.587 152.959 144.38 152.213 144.38 152.213C144.38 152.213 149.929 146.245 152.12 143.54C153.38 141.955 154.871 140.09 156.457 137.991V138.597C156.457 145.732 149.555 150.535 146.477 152.493H146.478ZM180.611 144.706C179.818 144.146 179.958 142.281 182.616 136.452C183.642 134.167 186.066 130.344 190.217 126.66C190.683 128.152 191.01 129.598 190.963 130.95C190.916 139.95 184.482 143.307 180.611 144.706Z" fill="#CD6799"/>
</svg>
