<svg xmlns="http://www.w3.org/2000/svg" viewBox="0 0 106.26 91.25"><defs><style>.cls-1{fill:#fc801b;}.cls-2{fill:#a49c99;}.cls-3{fill:#231916;}.cls-4{fill:none;stroke:#231916;stroke-miterlimit:10;stroke-width:2px;}</style></defs><g id="Layer_2" data-name="Layer 2"><g id="Layer_1-2" data-name="Layer 1"><g id="Layer_2-2" data-name="Layer 2"><g id="paw"><path class="cls-1" d="M97.82,7.51c-10.7-10.7-26.19-9.15-43.16-.46C38.2-.78,18.42-2.11,8.24,8.07-5.51,21.82-1.6,48.25,16.63,68.55c.9,1,1.83,2,2.81,3C28.85,81,43.63,88.71,54.21,91.25a35.23,35.23,0,0,0,14.11-4.76L68,86.4,44.46,57.79s-13.15,1.79-15.1-6.13S34.15,43,34.15,43s-7.63-4-2.55-10.62,8.68-1.49,8.68-1.49-.6-7.78,5.38-8.68a7.4,7.4,0,0,1,8.07,4.19s.75-3.74,6.73-2.54,6,15.55,6,15.55l27,24.27C108.46,44.22,110.75,20.43,97.82,7.51Z"/><path class="cls-2" d="M93.29,64,66.23,39.67s0-14.35-6-15.55-6.72,2.54-6.72,2.54a7.41,7.41,0,0,0-8.08-4.19c-6,.9-5.38,8.68-5.38,8.68s-3.59-5.09-8.67,1.49,2.54,10.62,2.54,10.62-6.73.75-4.79,8.67,15.11,6.13,15.11,6.13L67.79,86.68"/><path class="cls-3" d="M93.63,63.81,74.08,46.27,69,41.66l-1.62-1.45a3.83,3.83,0,0,1-.73-.66s0,.16,0-.06a3.39,3.39,0,0,1,0-.78q-.06-1.47-.21-2.94a24.78,24.78,0,0,0-2-8.21,6.41,6.41,0,0,0-7-3.85c-1.7.17-3.77,1.13-4.17,3l.73-.14c-1.56-3.7-6.18-5.32-9.84-3.93-3.39,1.28-4.59,5.28-4.34,8.61L40.4,31a4.79,4.79,0,0,0-3.2-1.92c-2.91-.35-5.43,2.25-6.8,4.5a6.17,6.17,0,0,0,.09,7.07,9.52,9.52,0,0,0,3.16,2.79L34,43a6.71,6.71,0,0,0-3.79,1.81C28,47,28,50.81,29.3,53.44c2.36,4.84,9.18,5.28,13.87,4.94A4.67,4.67,0,0,0,44,58.3c.33-.1,0,0-.08-.07.21.29.46.55.68.83l3.62,4.4L59.65,77.34l7.8,9.48c.17.21.87,0,.67-.29L51.21,66l-4.43-5.39-1.43-1.74a4.23,4.23,0,0,0-.71-.86c-.65-.42-2.23,0-3,0a17.94,17.94,0,0,1-8.18-1.49,7.91,7.91,0,0,1-4-9.38,5.4,5.4,0,0,1,4.43-3.66c.14,0,.62-.25.33-.41-2.73-1.46-4.94-4.54-3.95-7.73C31.07,32.79,34,29,37,29.55a4.4,4.4,0,0,1,2.69,1.74c.15.21.72,0,.7-.24-.2-2.8.65-6.47,3.35-7.84a7.1,7.1,0,0,1,9.38,3.55c.11.26.68.1.73-.14.53-2.49,3.74-2.7,5.74-2.37,2.73.47,4,3.06,4.8,5.47a33.28,33.28,0,0,1,1.34,7.61c0,.72-.16,2,.24,2.58a14.34,14.34,0,0,0,2.49,2.24l4.83,4.34L85.45,57.36,93,64.1c.2.18.88-.1.67-.29Z"/><path class="cls-2" d="M67.79,86.68l.32.06c6.36-3.66,12.4-9.11,18.92-15.63q1.77-1.78,3.39-3.64c1-1.15,2-2.33,2.87-3.52"/><circle class="cls-3" cx="38.19" cy="47.69" r="2.7"/><circle class="cls-3" cx="37.63" cy="36.73" r="2.7"/><circle class="cls-3" cx="47.91" cy="30.26" r="2.7"/><circle class="cls-3" cx="57.86" cy="30.93" r="2.7"/><path class="cls-3" d="M53.83,37.2l-6.73.38a2.86,2.86,0,0,0-1.85.82,3,3,0,0,0-1.45,2.53V47.6a3,3,0,0,0,3,3h1.63a3,3,0,0,0,3-3V44.9l2.92-.17A2.93,2.93,0,0,0,57,41.65L56.9,40A2.92,2.92,0,0,0,53.83,37.2Z"/><path class="cls-4" d="M52.52,53.79a2.67,2.67,0,0,0,3.73,0l4-4a2.64,2.64,0,0,0,0-3.72"/></g></g></g></g></svg>